<svg width="60" height="60" viewBox="0 0 60 60" fill="none" xmlns="http://www.w3.org/2000/svg">
<circle cx="30" cy="30" r="30" fill="white"/>
<path fill-rule="evenodd" clip-rule="evenodd" d="M21 21C21.0002 19.268 21.5001 17.5729 22.4398 16.118C23.3794 14.663 24.719 13.5102 26.2976 12.7977C27.8763 12.0852 29.627 11.8433 31.3397 12.1011C33.0524 12.3589 34.6543 13.1055 35.9533 14.2511C37.2522 15.3968 38.193 16.8929 38.6627 18.56C39.1324 20.2271 39.1111 21.9943 38.6014 23.6496C38.0917 25.3049 37.1151 26.7779 35.789 27.892C34.4628 29.006 32.8434 29.7138 31.125 29.9303V42.375C31.125 42.6734 31.0065 42.9595 30.7955 43.1705C30.5845 43.3815 30.2984 43.5 30 43.5C29.7016 43.5 29.4155 43.3815 29.2045 43.1705C28.9935 42.9595 28.875 42.6734 28.875 42.375V29.9325C26.6992 29.6584 24.6983 28.5993 23.2482 26.954C21.7982 25.3088 20.9987 23.1908 21 20.9978V21Z" fill="#FA3B80"/>
<path fill-rule="evenodd" clip-rule="evenodd" d="M18.975 37.2C19.0798 37.0603 19.2157 36.9469 19.3719 36.8688C19.5281 36.7907 19.7003 36.75 19.875 36.75H25.5C25.7984 36.75 26.0845 36.8685 26.2955 37.0795C26.5065 37.2905 26.625 37.5766 26.625 37.875C26.625 38.1734 26.5065 38.4595 26.2955 38.6705C26.0845 38.8815 25.7984 39 25.5 39H20.4375L15.375 45.75H44.625L39.5625 39H34.5C34.2016 39 33.9155 38.8815 33.7045 38.6705C33.4935 38.4595 33.375 38.1734 33.375 37.875C33.375 37.5766 33.4935 37.2905 33.7045 37.0795C33.9155 36.8685 34.2016 36.75 34.5 36.75H40.125C40.2997 36.75 40.4719 36.7907 40.6281 36.8688C40.7843 36.9469 40.9202 37.0603 41.025 37.2L47.775 46.2C47.9004 46.3671 47.9767 46.5659 47.9955 46.774C48.0142 46.982 47.9747 47.1912 47.8812 47.3781C47.7878 47.565 47.6442 47.7221 47.4664 47.832C47.2887 47.9418 47.0839 48 46.875 48H13.125C12.9161 48 12.7113 47.9418 12.5336 47.832C12.3558 47.7221 12.2122 47.565 12.1188 47.3781C12.0253 47.1912 11.9858 46.982 12.0045 46.774C12.0233 46.5659 12.0996 46.3671 12.225 46.2L18.975 37.2Z" fill="#FA3B80"/>
</svg>
